<svg width="25" height="25" viewBox="0 0 25 25" fill="none" xmlns="http://www.w3.org/2000/svg">
<g clip-path="url(#clip0_325_11)">
<path d="M23.6731 19.6603C23.6731 20.1907 23.4624 20.6994 23.0873 21.0745C22.7122 21.4495 22.2035 21.6603 21.6731 21.6603H3.67308C3.14264 21.6603 2.63394 21.4495 2.25886 21.0745C1.88379 20.6994 1.67308 20.1907 1.67308 19.6603V8.66026C1.67308 8.12982 1.88379 7.62112 2.25886 7.24604C2.63394 6.87097 3.14264 6.66026 3.67308 6.66026H7.67308L9.67308 3.66026H15.6731L17.6731 6.66026H21.6731C22.2035 6.66026 22.7122 6.87097 23.0873 7.24604C23.4624 7.62112 23.6731 8.12982 23.6731 8.66026V19.6603Z" stroke="#573821" stroke-width="2" stroke-linecap="round" stroke-linejoin="round"/>
<path d="M12.6731 17.6603C14.8822 17.6603 16.6731 15.8694 16.6731 13.6603C16.6731 11.4511 14.8822 9.66026 12.6731 9.66026C10.4639 9.66026 8.67308 11.4511 8.67308 13.6603C8.67308 15.8694 10.4639 17.6603 12.6731 17.6603Z" stroke="#573821" stroke-width="2" stroke-linecap="round" stroke-linejoin="round"/>
</g>
<defs>
<clipPath id="clip0_325_11">
<rect width="24" height="24" fill="white" transform="translate(0.673077 0.660256)"/>
</clipPath>
</defs>
</svg>
